# Blender 3.4.0
# www.blender.org
mtllib GasStationDoor.mtl
o Cube.001
v 0.637615 0.250440 -0.753686
v 0.637615 1.815002 -0.753686
v 0.637615 0.250440 -1.032492
v 0.637615 1.815002 -1.032492
v 2.975049 0.250440 -0.753686
v 2.975049 1.815002 -0.753686
v 2.975049 0.250440 -1.032492
v 2.975049 1.815002 -1.032492
v 0.637615 3.502656 -0.753686
v 0.637615 3.502656 -1.032492
v 2.975049 3.502656 -1.032492
v 2.975049 3.502656 -0.753686
v 0.637615 3.751534 -0.753686
v 0.637615 3.751534 -1.032492
v 2.975049 3.751534 -1.032492
v 2.975049 3.751534 -0.753686
v 0.876907 0.250440 -1.032492
v 0.876907 1.815002 -1.032492
v 0.876907 0.250440 -0.753686
v 0.876907 1.815002 -0.753686
v 0.876907 3.502656 -1.032492
v 0.876907 3.502656 -0.753686
v 0.876907 3.751534 -1.032492
v 0.876907 3.751534 -0.753686
v 2.334527 1.815002 -1.032492
v 2.334527 0.250440 -0.753686
v 2.334527 3.502656 -1.032492
v 2.334527 3.751534 -1.032492
v 2.334527 0.250440 -1.032492
v 2.334527 1.815002 -0.753686
v 2.334527 3.502656 -0.753686
v 2.334527 3.751534 -0.753686
v 0.637615 2.069820 -1.032492
v 2.975049 2.069820 -1.032492
v 2.975049 2.069820 -0.753686
v 0.637615 2.069820 -0.753686
v 0.876907 2.069820 -0.753686
v 0.876907 2.069820 -1.032492
v 2.334527 2.069820 -1.032492
v 2.334527 2.069820 -0.753686
v 0.637615 0.639954 -0.753686
v 0.637615 0.639954 -1.032492
v 2.975049 0.639954 -1.032492
v 2.975049 0.639954 -0.753686
v 0.876907 0.639954 -0.753686
v 0.876907 0.639954 -1.032492
v 2.334527 0.639954 -0.753686
v 2.334527 0.639954 -1.032492
v 2.334527 1.815002 -0.845826
v 0.876907 1.815002 -0.845826
v 2.334527 3.502656 -0.845826
v 0.876907 3.502656 -0.845826
v 0.876907 2.069820 -0.845826
v 0.876907 2.069820 -0.940352
v 0.876907 3.502656 -0.940352
v 0.876907 1.815002 -0.940352
v 2.334527 1.815002 -0.940352
v 2.334527 3.502656 -0.940352
v 2.334527 2.069820 -0.940352
v 2.334527 2.069820 -0.845826
v 0.876907 0.639954 -0.845826
v 0.876907 0.639954 -0.940352
v 2.334527 0.639954 -0.845826
v 2.334527 0.639954 -0.940352
v 2.478301 1.815002 -1.032492
v 2.478301 0.250440 -0.753686
v 2.478301 3.502656 -1.032492
v 2.478301 3.751534 -1.032492
v 2.478301 0.250440 -1.032492
v 2.478301 1.815002 -0.753686
v 2.478301 3.502656 -0.753686
v 2.478301 3.751534 -0.753686
v 2.478301 2.069820 -1.032492
v 2.478301 2.069820 -0.753686
v 2.478301 0.639954 -0.753686
v 2.478301 0.639954 -1.032492
v 2.877067 1.815002 -1.032492
v 2.877067 0.250440 -0.753686
v 2.877067 3.502656 -1.032492
v 2.877067 3.751534 -1.032492
v 2.877067 2.069820 -1.032492
v 2.877067 0.639954 -1.032492
v 2.877067 0.250440 -1.032492
v 2.877067 1.815002 -0.753686
v 2.877067 3.502656 -0.753686
v 2.877067 3.751534 -0.753686
v 2.877067 2.069820 -0.753686
v 2.877067 0.639954 -0.753686
v 0.637615 2.255111 -1.032492
v 0.637615 2.255111 -0.753686
v 2.334527 2.255111 -1.032492
v 2.334527 2.255111 -0.753686
v 2.975049 2.255111 -1.032492
v 2.975049 2.255111 -0.753686
v 2.334527 2.255111 -0.940352
v 2.334527 2.255111 -0.845826
v 2.478301 2.255111 -1.032492
v 2.478301 2.255111 -0.753686
v 2.877067 2.255111 -1.032492
v 2.877067 2.255111 -0.753686
v 0.637615 1.490317 -0.753686
v 0.637615 1.490317 -1.032492
v 2.975049 1.490317 -1.032492
v 2.975049 1.490317 -0.753686
v 2.334527 1.490317 -0.753686
v 2.334527 1.490317 -1.032492
v 2.334527 1.490317 -0.845826
v 2.334527 1.490317 -0.940352
v 2.478301 1.490317 -0.753686
v 2.478301 1.490317 -1.032492
v 2.877067 1.490317 -0.753686
v 2.877067 1.490317 -1.032492
v 2.478301 1.815002 -0.799412
v 2.478301 2.069820 -0.799412
v 2.877067 1.815002 -0.799412
v 2.877067 2.069820 -0.799412
v 2.478301 2.255111 -0.799412
v 2.877067 2.255111 -0.799412
v 2.478301 1.490317 -0.799412
v 2.877067 1.490317 -0.799412
v 2.478301 1.815002 -1.066673
v 2.478301 2.069820 -1.066673
v 2.877067 1.815002 -1.066673
v 2.877067 2.069820 -1.066673
v 2.478301 2.255111 -1.066673
v 2.877067 2.255111 -1.066673
v 2.478301 1.490317 -1.066673
v 2.877067 1.490317 -1.066673
v 2.877067 1.815002 -1.109890
v 2.877067 2.069820 -1.109890
v 2.478301 2.255111 -1.109890
v 2.877067 2.255111 -1.109890
v 2.478301 1.490317 -1.109890
v 2.877067 1.490317 -1.109890
v 2.395813 1.815002 -1.066673
v 2.395813 2.069820 -1.066673
v 2.395813 2.255111 -1.066673
v 2.395813 1.490317 -1.066673
v 2.395813 1.815002 -1.109890
v 2.395813 2.069820 -1.109890
v 2.395813 2.255111 -1.109890
v 2.395813 1.490317 -1.109890
vn -0.1381 -0.0000 0.9904
vn -0.1381 -0.0000 -0.9904
vn 0.0464 0.0464 -0.9978
vn 0.0464 -0.0464 -0.9978
vn 0.7071 -0.7071 -0.0000
vn 0.7071 0.7071 -0.0000
vn 0.1381 -0.0000 -0.9904
vn 0.1381 -0.0000 0.9904
vn -0.0000 -0.1381 -0.9904
vn 0.1368 -0.1368 -0.9811
vn 0.1368 -0.1368 0.9811
vn -0.0000 -0.1381 0.9904
vn 0.1368 0.1368 -0.9811
vn 0.1368 0.1368 0.9811
vn -0.0464 0.0464 0.9978
vn -0.0000 -0.0000 1.0000
vn -0.0000 0.1381 -0.9904
vn -0.1368 0.1368 -0.9811
vn -0.1368 0.1368 0.9811
vn -0.0000 0.1381 0.9904
vn -0.0464 -0.0464 -0.9978
vn 0.0464 -0.0464 0.9978
vn 0.0464 0.0464 0.9978
vn -0.0464 0.0464 -0.9978
vn -0.7071 0.7071 -0.0000
vn -1.0000 -0.0000 -0.0000
vn -0.1368 -0.1368 -0.9811
vn -0.1368 -0.1368 0.9811
vn -0.0000 -0.0000 -1.0000
vn -0.0464 -0.0464 0.9978
vn -0.7071 -0.7071 -0.0000
vn -0.1276 -0.3827 0.9150
vn 1.0000 -0.0000 -0.0000
vn -0.1276 0.3827 0.9150
vt 0.125000 0.750000
vt 0.375000 1.000000
vt 0.375000 0.000000
vt 0.625000 1.000000
vt 0.625000 0.000000
vt 0.125000 0.500000
vt 0.375000 0.250000
vt 0.625000 0.250000
vt 0.375000 0.750000
vt 0.625000 0.750000
vt 0.375000 0.500000
vt 0.625000 0.500000
vt 0.625000 0.000000
vt 0.625000 1.000000
vt 0.625000 0.250000
vt 0.625000 0.500000
vt 0.625000 0.750000
vt 0.875000 0.750000
vt 0.625000 0.000000
vt 0.625000 1.000000
vt 0.875000 0.500000
vt 0.625000 0.250000
vt 0.625000 0.500000
vt 0.625000 0.750000
vt 0.150593 0.500000
vt 0.375000 0.275593
vt 0.625000 0.275593
vt 0.150593 0.750000
vt 0.375000 0.974407
vt 0.625000 0.974407
vt 0.625000 0.275593
vt 0.625000 0.974407
vt 0.625000 0.275593
vt 0.849406 0.500000
vt 0.849407 0.750000
vt 0.625000 0.974407
vt 0.625000 0.431493
vt 0.375000 0.818507
vt 0.306493 0.750000
vt 0.625000 0.431493
vt 0.693507 0.500000
vt 0.625000 0.431493
vt 0.306493 0.500000
vt 0.375000 0.431493
vt 0.625000 0.818507
vt 0.625000 0.818507
vt 0.693507 0.750000
vt 0.625000 0.818507
vt 0.625000 0.250000
vt 0.625000 0.500000
vt 0.625000 0.750000
vt 0.625000 1.000000
vt 0.625000 0.000000
vt 0.625000 0.974407
vt 0.625000 0.275593
vt 0.625000 0.431493
vt 0.625000 0.818507
vt 0.437240 1.000000
vt 0.437240 0.000000
vt 0.437240 0.250000
vt 0.437240 0.500000
vt 0.437240 0.750000
vt 0.437240 0.974407
vt 0.437240 0.275593
vt 0.437240 0.818507
vt 0.437240 0.431493
vt 0.625000 0.818507
vt 0.625000 0.974407
vt 0.625000 0.818507
vt 0.625000 0.974407
vt 0.625000 0.974407
vt 0.625000 0.275593
vt 0.625000 0.275593
vt 0.625000 0.275593
vt 0.625000 0.431493
vt 0.625000 0.431493
vt 0.625000 0.431493
vt 0.625000 0.818507
vt 0.437240 0.974407
vt 0.437240 0.275593
vt 0.437240 0.818507
vt 0.437240 0.431493
vt 0.625000 0.446870
vt 0.375000 0.803130
vt 0.321870 0.750000
vt 0.625000 0.446870
vt 0.625000 0.446870
vt 0.678130 0.500000
vt 0.321870 0.500000
vt 0.375000 0.446870
vt 0.625000 0.803130
vt 0.625000 0.803130
vt 0.678130 0.750000
vt 0.625000 0.803130
vt 0.625000 0.446870
vt 0.625000 0.803130
vt 0.437240 0.803130
vt 0.437240 0.446870
vt 0.625000 0.489520
vt 0.375000 0.760480
vt 0.364520 0.750000
vt 0.625000 0.489520
vt 0.635480 0.500000
vt 0.625000 0.489520
vt 0.625000 0.489520
vt 0.437240 0.489520
vt 0.364520 0.500000
vt 0.375000 0.489520
vt 0.625000 0.760480
vt 0.625000 0.760480
vt 0.635480 0.750000
vt 0.625000 0.760480
vt 0.625000 0.760480
vt 0.437240 0.760480
vt 0.625000 0.250000
vt 0.625000 1.000000
vt 0.625000 0.000000
vt 0.625000 0.431493
vt 0.625000 0.818507
vt 0.625000 0.500000
vt 0.625000 0.750000
vt 0.625000 0.431493
vt 0.625000 0.818507
vt 0.625000 0.446870
vt 0.625000 0.803130
vt 0.625000 0.489520
vt 0.625000 0.760480
vt 0.573119 1.000000
vt 0.573119 0.000000
vt 0.573119 0.250000
vt 0.573119 0.500000
vt 0.573119 0.750000
vt 0.573119 0.818507
vt 0.573119 0.431493
vt 0.573119 0.818507
vt 0.573119 0.431493
vt 0.573119 0.803130
vt 0.573119 0.446870
vt 0.573119 0.760480
vt 0.573119 0.489520
vt 0.625000 0.803130
vt 0.625000 0.803130
vt 0.625000 0.760480
vt 0.625000 0.760480
vt 0.625000 0.803130
vt 0.625000 0.760480
vt 0.573119 0.803130
vt 0.573119 0.760480
vt 0.625000 0.446870
vt 0.625000 0.446870
vt 0.625000 0.489520
vt 0.625000 0.489520
vt 0.625000 0.446870
vt 0.625000 0.489520
vt 0.573119 0.446870
vt 0.573119 0.489520
vt 0.625000 0.489520
vt 0.625000 0.489520
vt 0.625000 0.446870
vt 0.625000 0.489520
vt 0.573119 0.446870
vt 0.573119 0.489520
vt 0.625000 0.446870
vt 0.625000 0.446870
vt 0.625000 0.446870
vt 0.573119 0.446870
vt 0.625000 0.446870
vt 0.625000 0.446870
vt 0.625000 0.446870
vt 0.573119 0.446870
s 1
usemtl doorhandle
f 100/127/30 98/125/22 117/145/11 118/146/28
f 112/140/4 110/138/21 127/155/32 128/156/5
f 115/143/1 116/144/1 118/146/28 117/145/11 114/142/8 113/141/8 119/147/14 120/148/19
f 111/139/15 84/109/1 115/143/1 120/148/19
f 70/91/8 109/137/23 119/147/14 113/141/8
f 109/137/23 111/139/15 120/148/19 119/147/14
f 84/109/1 87/113/1 116/144/1 115/143/1
f 87/113/1 100/127/30 118/146/28 116/144/1
f 74/96/8 70/91/8 113/141/8 114/142/8
f 98/125/22 74/96/8 114/142/8 117/145/11
f 65/83/2 73/95/2 122/150/1 121/149/1
f 99/126/3 81/105/7 124/152/33 126/154/6
f 73/95/2 97/124/24 125/153/34 122/150/1
f 97/124/24 99/126/3 126/154/6 125/153/34
f 77/99/7 112/140/4 128/156/5 123/151/33
f 81/105/7 77/99/7 123/151/33 124/152/33
f 128/156/5 127/155/32 133/161/9 134/162/10
f 139/167/2 140/168/2 141/169/18 131/159/17 132/160/13 130/158/7 129/157/7 134/162/10 133/161/9 142/170/27
f 126/154/6 124/152/33 130/158/7 132/160/13
f 124/152/33 123/151/33 129/157/7 130/158/7
f 123/151/33 128/156/5 134/162/10 129/157/7
f 125/153/34 126/154/6 132/160/13 131/159/17
f 125/153/34 131/159/17 141/169/18 137/165/19
f 135/163/1 136/164/1 140/168/2 139/167/2
f 138/166/28 135/163/1 139/167/2 142/170/27
f 136/164/1 137/165/19 141/169/18 140/168/2
f 133/161/9 127/155/32 138/166/28 142/170/27
f 122/150/1 125/153/34 137/165/19 136/164/1
usemtl Door
f 101/129/1 2/5/1 4/8/2 102/130/2
f 38/55/3 21/31/4 55/73/5 54/72/6
f 103/131/7 8/12/7 6/10/8 104/132/8
f 83/107/9 7/11/10 5/9/11 78/101/12
f 46/64/3 18/27/4 56/74/5 62/80/6
f 12/17/8 11/16/7 15/23/13 16/24/14
f 94/121/8 93/120/7 11/16/7 12/17/8
f 89/115/2 90/117/1 9/13/1 10/15/2
f 44/62/8 104/132/8 6/10/8 84/109/1 111/139/15 88/114/16
f 23/34/17 14/21/18 13/18/19 24/35/20
f 10/15/2 9/13/1 13/19/19 14/22/18
f 85/110/16 12/17/8 16/24/14 86/112/20
f 21/31/4 10/15/2 14/22/18 23/33/17
f 27/40/21 21/31/4 23/33/17 28/42/17
f 9/14/1 22/32/22 24/36/20 13/20/19
f 28/41/17 23/34/17 24/35/20 32/47/20
f 45/63/23 20/30/22 2/4/1 101/128/1 41/58/1
f 106/134/2 48/66/24 64/82/25 108/136/26
f 3/6/27 17/25/9 19/28/12 1/1/28
f 37/54/23 40/57/15 60/78/25 53/71/6
f 22/32/22 37/54/23 53/71/6 52/70/5
f 78/100/12 88/114/16 111/139/15 109/137/23 75/97/16 66/84/12
f 48/66/24 106/134/2 25/37/21 65/83/2 110/138/21 76/98/29
f 68/88/17 28/41/17 32/47/20 72/93/20
f 67/86/29 27/40/21 28/42/17 68/87/17
f 22/32/22 31/46/30 32/48/20 24/36/20
f 30/45/30 20/30/22 50/68/5 49/67/31
f 17/25/9 29/43/9 26/39/12 19/28/12
f 91/118/2 39/56/24 59/77/25 95/122/26
f 20/30/22 30/45/30 40/57/15 37/54/23
f 65/83/2 25/37/21 39/56/24 73/95/2
f 25/37/21 18/27/4 38/55/3 39/56/24
f 2/4/1 20/30/22 37/54/23 36/52/1
f 84/109/1 6/10/8 35/51/8 87/113/1
f 4/8/2 2/5/1 36/53/1 33/49/2
f 6/10/8 8/12/7 34/50/7 35/51/8
f 18/27/4 4/8/2 33/49/2 38/55/3
f 17/26/9 46/64/3 48/66/24 29/44/9
f 66/84/12 75/97/16 47/65/15 26/38/12
f 3/7/27 42/60/2 46/64/3 17/26/9
f 26/38/12 47/65/15 45/63/23 19/29/12
f 19/29/12 45/63/23 41/58/1 1/2/28
f 7/11/10 43/61/7 44/62/8 5/9/11
f 34/50/7 81/105/7 99/126/3 79/102/29 11/16/7 93/120/7
f 1/3/28 41/59/1 42/60/2 3/7/27
f 73/95/2 39/56/24 91/118/2 27/40/21 67/86/29 97/124/24
f 36/52/1 37/54/23 22/32/22 9/14/1 90/116/1
f 108/136/26 64/82/25 63/81/25 107/135/26
f 82/106/29 112/140/4 77/99/7 8/12/7 103/131/7 43/61/7
f 21/31/4 27/40/21 58/76/31 55/73/5
f 20/30/22 45/63/23 61/79/6 50/68/5
f 48/66/24 46/64/3 62/80/6 64/82/25
f 38/55/3 33/49/2 89/115/2 10/15/2 21/31/4
f 31/46/30 22/32/22 52/70/5 51/69/31
f 39/56/24 38/55/3 54/72/6 59/77/25
f 92/119/1 31/46/30 51/69/31 96/123/26
f 45/63/23 47/65/15 63/81/25 61/79/6
f 42/60/2 102/130/2 4/8/2 18/27/4 46/64/3
f 18/27/4 25/37/21 57/75/31 56/74/5
f 105/133/1 30/45/30 49/67/31 107/135/26
f 30/45/30 70/91/8 74/96/8 40/57/15
f 79/102/29 67/86/29 68/87/17 80/104/17
f 80/103/17 68/88/17 72/93/20 86/111/20
f 99/126/3 97/124/24 67/86/29 79/102/29
f 31/46/30 71/92/16 72/94/20 32/48/20
f 87/113/1 35/51/8 94/121/8 12/17/8 85/110/16 100/127/30
f 29/43/9 69/89/9 66/85/12 26/39/12
f 57/75/31 108/136/26 107/135/26 49/67/31
f 75/97/16 109/137/23 70/91/8 30/45/30 105/133/1 47/65/15
f 95/122/26 59/77/25 60/78/25 96/123/26
f 15/23/13 80/103/17 86/111/20 16/24/14
f 11/16/7 79/102/29 80/104/17 15/23/13
f 8/12/7 77/99/7 81/105/7 34/50/7
f 5/9/11 44/62/8 88/114/16 78/100/12
f 71/92/16 85/110/16 86/112/20 72/94/20
f 98/125/22 100/127/30 85/110/16 71/92/16
f 69/89/9 83/107/9 78/101/12 66/85/12
f 40/57/15 74/96/8 98/125/22 71/92/16 31/46/30 92/119/1
f 29/44/9 48/66/24 76/98/29 82/106/29 43/61/7 7/11/10 83/108/9 69/90/9
f 40/57/15 92/119/1 96/123/26 60/78/25
f 27/40/21 91/118/2 95/122/26 58/76/31
f 33/49/2 36/53/1 90/117/1 89/115/2
f 35/51/8 34/50/7 93/120/7 94/121/8
f 76/98/29 110/138/21 112/140/4 82/106/29
f 47/65/15 105/133/1 107/135/26 63/81/25
f 25/37/21 106/134/2 108/136/26 57/75/31
f 43/61/7 103/131/7 104/132/8 44/62/8
f 41/59/1 101/129/1 102/130/2 42/60/2
f 58/76/31 95/122/26 96/123/26 51/69/31
f 127/155/32 121/149/1 135/163/1 138/166/28
f 110/138/21 65/83/2 121/149/1 127/155/32
f 121/149/1 122/150/1 136/164/1 135/163/1
f 59/77/25 54/72/6 53/71/6 60/78/25
f 54/72/6 55/73/5 52/70/5 53/71/6
f 55/73/5 58/76/31 51/69/31 52/70/5
f 64/82/25 62/80/6 61/79/6 63/81/25
f 62/80/6 56/74/5 50/68/5 61/79/6
f 56/74/5 57/75/31 49/67/31 50/68/5
